<?xml version="1.0" encoding="utf-8"?>
<!-- Generator: Adobe Illustrator 16.0.0, SVG Export Plug-In . SVG Version: 6.00 Build 0)  -->
<!DOCTYPE svg PUBLIC "-//W3C//DTD SVG 1.1//EN" "http://www.w3.org/Graphics/SVG/1.1/DTD/svg11.dtd">
<svg version="1.1" id="Layer_2" xmlns="http://www.w3.org/2000/svg" xmlns:xlink="http://www.w3.org/1999/xlink" x="0px" y="0px"
	 width="2800px" height="1960px" viewBox="0 0 2800 1960" enable-background="new 0 0 2800 1960" xml:space="preserve">
<g id="Airport">
</g>
<rect x="4.5" fill="#FFF6BF" width="2800" height="1960"/>
<g>
	<rect x="1069.8" y="247.6" fill="#FFD77D" width="671.5" height="671.5"/>
	<rect x="1864.2" y="247.6" fill="#FFD77D" width="671.5" height="671.5"/>
	<rect x="273.2" y="1040.8" fill="#FFD77D" width="671.5" height="671.5"/>
	<rect x="1069.8" y="1040.8" fill="#FFD77D" width="671.5" height="671.5"/>
	<rect x="1864.2" y="1040.8" fill="#FFD77D" width="671.5" height="671.5"/>
	<rect x="273.2" y="247.6" fill="#FFD77D" width="671.5" height="671.5"/>
	<g>
		<g>
			<path fill="#FFDF45" d="M1346.4,1222.4c0,0,61.1-128.3,120.3,4c0,0,147.9-63.1,81,86.2c0,0,146.6,62.7-6.8,116.6
				c0,0,93.6,146.9-75.2,88c0,0-41.1,150.2-119.3,8.9c0,0-144.3,51.8-78.2-96.9c0,0-152.3-54.5-1-117.6
				C1267.2,1311.6,1193.1,1176.3,1346.4,1222.4z"/>
			<path fill="#592403" d="M1409.9,1588.8c-20.5,0-42.2-20.2-64.5-60.1c-6,2-26.6,8.3-47.5,8.3c-20.5,0-34.8-6.1-42.6-18
				c-11.4-17.5-8-47.3,10-88.5c-11.8-4.5-66.4-27.3-67.3-59.7c-0.5-21,21.7-41.3,66.2-60.1c-5.3-10.4-27.1-56-11.7-82
				c7-11.8,20.6-17.8,40.4-17.8c14.1,0,31.7,3.1,52.3,9.2c4.8-9.5,29.8-55.4,62.8-55.4c21.7,0,41.7,19.9,59.7,59.2
				c7.3-2.9,33.4-12.6,57.2-12.6c17.4,0,29.6,5.3,36.3,15.6c10.5,16.2,6.9,44.8-10.8,84.9c11.1,5.1,63.6,30.7,62.5,62.9
				c-0.7,20.9-23.9,39.7-68.9,55.9c6.9,11.3,35.1,61,20.8,87.1c-5.7,10.5-17.5,15.8-34.9,15.8c0,0,0,0,0,0
				c-15.9,0-37.1-4.5-62.8-13.3C1463.4,1532.1,1444.5,1588.8,1409.9,1588.8z M1346.4,1523.9c0.8,0,1.5,0.4,1.9,1.1
				c21.8,39.5,42.6,59.5,61.7,59.5c34.7,0,53.5-67.2,53.7-67.9c0.2-0.6,0.5-1,1.1-1.3s1.1-0.3,1.7-0.1c26.3,9.2,47.6,13.8,63.5,13.8
				c0,0,0,0,0,0c15.8,0,26.3-4.6,31.2-13.6c14.7-26.8-21.7-84.5-22.1-85.1c-0.3-0.5-0.4-1.2-0.2-1.8c0.2-0.6,0.7-1.1,1.3-1.3
				c44.9-15.8,67.9-33.6,68.6-52.9c1.1-32.4-61.3-59.4-61.9-59.7c-0.5-0.2-0.9-0.7-1.1-1.2s-0.2-1.1,0-1.6
				c17.8-39.7,21.8-67.6,12-82.8c-5.9-9.1-16.9-13.7-32.8-13.7c-26.5,0-57.1,13-57.4,13.1c-1.1,0.5-2.3,0-2.8-1.1
				c-17.4-38.9-36.4-58.6-56.6-58.6c-33.4,0-59.5,54.1-59.8,54.6c-0.5,0.9-1.5,1.4-2.5,1.1c-20.9-6.3-38.7-9.5-52.8-9.5
				c-18.2,0-30.5,5.3-36.7,15.7c-15.9,26.8,12.5,79.4,12.8,79.9c0.3,0.5,0.3,1.2,0.1,1.7c-0.2,0.6-0.6,1-1.2,1.3
				c-44.1,18.4-66.2,37.6-65.7,57c0.8,32.8,65.9,56.4,66.6,56.6c0.6,0.2,1,0.6,1.2,1.2c0.2,0.5,0.2,1.2,0,1.7
				c-18.2,40.9-22,70-11.2,86.5c6.9,10.7,20.1,16.1,39,16.1c23.4,0,47.5-8.5,47.7-8.6C1345.9,1524,1346.2,1523.9,1346.4,1523.9z"/>
		</g>
		<g>
			<path fill="#FFA100" d="M1446.2,1236.8c0,28.6-17.2,85.7-38.3,85.7c-21.2,0-38.3-57-38.3-85.7c0-28.6,17.2-51.9,38.3-51.9
				C1429.1,1185,1446.2,1208.2,1446.2,1236.8z"/>
			<path fill="#592403" d="M1407.9,1324.6c-23,0-40.5-58.5-40.5-87.8c0-29.8,18.2-54,40.5-54c22.3,0,40.5,24.2,40.5,54
				C1448.4,1266.1,1430.9,1324.6,1407.9,1324.6z M1407.9,1187.1c-20,0-36.2,22.3-36.2,49.7c0,30.7,17.9,83.6,36.2,83.6
				c18.3,0,36.2-52.9,36.2-83.6C1444.1,1209.4,1427.9,1187.1,1407.9,1187.1z"/>
		</g>
		<g>
			<path fill="#FFA100" d="M1529.1,1303.9c-20.3,20.3-72.7,48.5-87.7,33.5c-15-15,13.2-67.4,33.5-87.7c20.3-20.3,48.8-24.5,63.8-9.6
				C1553.7,1255.1,1549.4,1283.6,1529.1,1303.9z"/>
			<path fill="#592403" d="M1454,1343.7c-6.2,0-10.9-1.6-14.1-4.8c-16.2-16.2,12.8-70,33.5-90.7c12.2-12.2,27.5-19.1,42-19.1
				c9.9,0,18.5,3.3,24.8,9.6c15.8,15.8,11.5,45.7-9.6,66.8C1515,1321,1477.4,1343.7,1454,1343.7z M1515.4,1233.3
				c-13.2,0-27.8,6.7-39,17.9c-21.7,21.7-46.4,71.7-33.5,84.7c2.4,2.4,6.1,3.6,11.1,3.6c20.2,0,56.8-20.3,73.6-37.1
				c19.4-19.4,23.7-46.7,9.6-60.8C1531.8,1236.2,1524.2,1233.3,1515.4,1233.3z"/>
		</g>
		<g>
			<path fill="#FFA100" d="M1537.9,1411.8c-28.6,0-85.7-17.2-85.7-38.3c0-21.2,57-38.3,85.7-38.3c28.6,0,51.9,17.2,51.9,38.3
				S1566.6,1411.8,1537.9,1411.8z"/>
			<path fill="#592403" d="M1537.9,1413.9c-29.3,0-87.8-17.5-87.8-40.5c0-23,58.5-40.5,87.8-40.5c29.8,0,54,18.2,54,40.5
				C1591.9,1395.8,1567.7,1413.9,1537.9,1413.9z M1537.9,1337.3c-30.7,0-83.6,17.9-83.6,36.2c0,18.3,52.9,36.2,83.6,36.2
				c27.4,0,49.7-16.2,49.7-36.2C1587.7,1353.5,1565.4,1337.3,1537.9,1337.3z"/>
		</g>
		<g>
			<path fill="#FFA100" d="M1474.9,1498.7c-20.3-20.3-48.5-72.7-33.5-87.7c15-15,67.4,13.2,87.7,33.5s24.5,48.8,9.6,63.8
				C1523.7,1523.2,1495.2,1518.9,1474.9,1498.7z"/>
			<path fill="#592403" d="M1515.4,1519.3c-14.6,0-29.9-7-42-19.1c-20.7-20.7-49.7-74.5-33.5-90.7c3.2-3.2,8-4.8,14.1-4.8
				c23.4,0,61,22.7,76.6,38.3c21,21.1,25.3,51,9.6,66.8C1533.9,1516,1525.4,1519.3,1515.4,1519.3z M1454,1408.9
				c-5,0-8.7,1.2-11.1,3.6c-13,13,11.8,63,33.5,84.7c11.2,11.2,25.8,17.9,39,17.9c8.8,0,16.3-2.9,21.8-8.3
				c14.1-14.1,9.8-41.4-9.6-60.8C1510.8,1429.2,1474.3,1408.9,1454,1408.9z"/>
		</g>
		<g>
			<path fill="#FFA100" d="M1369.6,1514.9c0-28.6,17.2-85.7,38.3-85.7c21.2,0,38.3,57,38.3,85.7s-17.2,51.9-38.3,51.9
				C1386.7,1566.7,1369.6,1543.5,1369.6,1514.9z"/>
			<path fill="#592403" d="M1407.9,1568.9c-22.3,0-40.5-24.2-40.5-54c0-29.3,17.5-87.8,40.5-87.8c23,0,40.5,58.5,40.5,87.8
				C1448.4,1544.7,1430.2,1568.9,1407.9,1568.9z M1407.9,1431.3c-18.3,0-36.2,52.9-36.2,83.6c0,27.4,16.2,49.7,36.2,49.7
				c20,0,36.2-22.3,36.2-49.7C1444.1,1484.2,1426.2,1431.3,1407.9,1431.3z"/>
		</g>
		<g>
			<path fill="#FFA100" d="M1290.1,1444.5c20.3-20.3,72.7-48.5,87.7-33.5s-13.2,67.4-33.5,87.7c-20.3,20.3-48.8,24.5-63.8,9.6
				C1265.6,1493.3,1269.9,1464.7,1290.1,1444.5z"/>
			<path fill="#592403" d="M1303.8,1519.3c-9.9,0-18.5-3.3-24.8-9.6c-15.8-15.8-11.5-45.7,9.6-66.8c15.6-15.6,53.2-38.3,76.6-38.3
				c6.2,0,10.9,1.6,14.1,4.8c16.2,16.2-12.8,70-33.5,90.7C1333.7,1512.3,1318.3,1519.3,1303.8,1519.3z M1365.2,1408.9
				c-20.2,0-56.8,20.3-73.6,37.1c-19.4,19.4-23.7,46.7-9.6,60.8c5.4,5.4,13,8.3,21.8,8.3c13.2,0,27.8-6.7,39-17.9
				c21.7-21.7,46.4-71.7,33.5-84.7C1373.9,1410.1,1370.2,1408.9,1365.2,1408.9z"/>
		</g>
		<g>
			<path fill="#FFA100" d="M1275.9,1335.1c28.6,0,85.7,17.2,85.7,38.3c0,21.2-57,38.3-85.7,38.3s-51.9-17.2-51.9-38.3
				C1224,1352.3,1247.2,1335.1,1275.9,1335.1z"/>
			<path fill="#592403" d="M1275.9,1413.9c-14.3,0-27.8-4.1-37.9-11.6c-10.4-7.7-16.1-17.9-16-28.8c0-10.9,5.7-21.2,16.1-28.8
				c10.2-7.5,23.6-11.6,37.9-11.6c29.3,0,87.8,17.5,87.8,40.5C1363.7,1396.4,1305.2,1413.9,1275.9,1413.9z M1275.9,1337.3
				c-13.4,0-26,3.8-35.4,10.8c-9.2,6.8-14.3,15.8-14.3,25.4c0,9.5,5.1,18.6,14.3,25.4c9.4,7,22,10.8,35.4,10.8
				c30.7,0,83.6-17.9,83.6-36.2C1359.4,1355.1,1306.6,1337.3,1275.9,1337.3z"/>
		</g>
		<g>
			<path fill="#FFA100" d="M1344.3,1252c20.3,20.3,48.5,72.7,33.5,87.7s-67.4-13.2-87.7-33.5s-24.5-48.8-9.6-63.8
				C1295.5,1227.5,1324.1,1231.8,1344.3,1252z"/>
			<path fill="#592403" d="M1365.2,1346c-23.4,0-61-22.7-76.6-38.3c-21-21.1-25.3-51-9.6-66.8c6.3-6.3,14.8-9.6,24.8-9.6
				c14.6,0,29.9,7,42,19.1c20.7,20.7,49.7,74.5,33.5,90.7C1376.1,1344.4,1371.3,1346,1365.2,1346z M1303.8,1235.6
				c-8.8,0-16.3,2.9-21.8,8.3c-14.1,14.1-9.8,41.4,9.6,60.8c16.8,16.8,53.4,37.1,73.6,37.1c5,0,8.7-1.2,11.1-3.6
				c13-13-11.8-63-33.5-84.7C1331.6,1242.3,1317,1235.6,1303.8,1235.6z"/>
		</g>
		<g>
			<path fill="#FFD05F" d="M1446.4,1373.5c0,21.2-17.2,38.4-38.4,38.4c-21.2,0-38.4-17.2-38.4-38.4s17.2-38.4,38.4-38.4
				C1429.2,1335.1,1446.4,1352.3,1446.4,1373.5z"/>
			<path fill="#592403" d="M1408,1414c-22.3,0-40.5-18.2-40.5-40.5c0-22.3,18.2-40.5,40.5-40.5c22.3,0,40.5,18.2,40.5,40.5
				C1448.5,1395.8,1430.3,1414,1408,1414z M1408,1337.2c-20,0-36.3,16.3-36.3,36.3c0,20,16.3,36.3,36.3,36.3
				c20,0,36.3-16.3,36.3-36.3C1444.3,1353.5,1428,1337.2,1408,1337.2z"/>
		</g>
		<g>
			<path fill="#FFD05F" d="M1512.6,1392.1c-15.4,0-46-9.2-46-20.6s30.6-20.6,46-20.6c15.4,0,27.8,9.2,27.8,20.6
				S1528,1392.1,1512.6,1392.1z"/>
		</g>
		<g>
			<path fill="#FFD05F" d="M1499.5,1308.6c-10.9,10.9-39,26-47.1,18s7.1-36.2,18-47.1s26.2-13.2,34.2-5.1
				S1510.3,1297.8,1499.5,1308.6z"/>
		</g>
		<g>
			<path fill="#FFD05F" d="M1430.2,1263.1c0,15.4-9.2,46-20.6,46c-11.4,0-20.6-30.6-20.6-46s9.2-27.8,20.6-27.8
				C1421,1235.2,1430.2,1247.7,1430.2,1263.1z"/>
		</g>
		<g>
			<path fill="#FFD05F" d="M1351.8,1281.5c10.9,10.9,26,39,18,47.1c-8,8-36.2-7.1-47.1-18c-10.9-10.9-13.2-26.2-5.1-34.2
				S1340.9,1270.6,1351.8,1281.5z"/>
		</g>
		<g>
			<path fill="#FFD05F" d="M1470.4,1464.6c-10.9-10.9-26-39-18-47.1s36.2,7.1,47.1,18s13.2,26.2,5.1,34.2
				S1481.2,1475.5,1470.4,1464.6z"/>
		</g>
		<g>
			<path fill="#FFD05F" d="M1389.1,1483.9c0-15.4,9.2-46,20.6-46c11.4,0,20.6,30.6,20.6,46s-9.2,27.8-20.6,27.8
				C1398.3,1511.7,1389.1,1499.2,1389.1,1483.9z"/>
		</g>
		<g>
			<path fill="#FFD05F" d="M1322.7,1435.5c10.9-10.9,39-26,47.1-18s-7.1,36.2-18,47.1c-10.9,10.9-26.2,13.2-34.2,5.1
				C1309.5,1461.7,1311.8,1446.4,1322.7,1435.5z"/>
		</g>
		<g>
			<path fill="#FFD05F" d="M1305,1350.9c15.4,0,46,9.2,46,20.6c0,11.4-30.6,20.6-46,20.6c-15.4,0-27.8-9.2-27.8-20.6
				C1277.2,1360.1,1289.7,1350.9,1305,1350.9z"/>
		</g>
		<g>
			<path fill="#FFA100" d="M1432.2,1373.5c0,13.3-10.8,24.2-24.2,24.2c-13.3,0-24.2-10.8-24.2-24.2c0-13.4,10.8-24.2,24.2-24.2
				C1421.3,1349.3,1432.2,1360.1,1432.2,1373.5z"/>
			<path fill="#592403" d="M1408,1399.8c-14.5,0-26.3-11.8-26.3-26.3c0-14.5,11.8-26.3,26.3-26.3c14.5,0,26.3,11.8,26.3,26.3
				C1434.3,1388,1422.5,1399.8,1408,1399.8z M1408,1351.4c-12.2,0-22,9.9-22,22c0,12.2,9.9,22,22,22c12.2,0,22-9.9,22-22
				C1430,1361.3,1420.1,1351.4,1408,1351.4z"/>
		</g>
	</g>
	<g>
		<g>
			<path fill="#FFDF45" d="M2018.6,1371.4c0,71.8,21.9,136.5,56.9,181.8h241c35-45.3,56.9-109.9,56.9-181.8
				c0-72.1-22-136.9-57.2-182.2h-240.4C2040.6,1234.5,2018.6,1299.4,2018.6,1371.4z"/>
			<path fill="#592403" d="M2316.4,1555.3h-241c-0.7,0-1.3-0.3-1.7-0.8c-36.4-47.1-57.3-113.9-57.3-183.1
				c0-69.4,21-136.3,57.6-183.5c0.4-0.5,1-0.8,1.7-0.8h240.4c0.7,0,1.3,0.3,1.7,0.8c36.6,47.2,57.6,114,57.6,183.5
				c0,69.2-20.9,135.9-57.3,183.1C2317.7,1555,2317.1,1555.3,2316.4,1555.3z M2076.5,1551.1h238.9c35.5-46.4,55.8-111.8,55.8-179.7
				c0-68.1-20.4-133.7-56.1-180.1h-238.3c-35.7,46.4-56.1,111.9-56.1,180.1C2020.7,1439.3,2041,1504.7,2076.5,1551.1z"/>
		</g>
		<g>
			<path fill="#FFA100" d="M2041.7,1371.4c0,62.5,19,118.7,49.4,158.1h209.5c30.4-39.3,49.4-95.6,49.4-158.1
				c0-62.6-19.1-119-49.7-158.4h-209C2060.9,1252.4,2041.7,1308.8,2041.7,1371.4z"/>
			<path fill="#592403" d="M2300.7,1531.6h-209.5c-0.7,0-1.3-0.3-1.7-0.8c-31.7-41-49.9-99.1-49.9-159.4
				c0-60.4,18.3-118.6,50.2-159.7c0.4-0.5,1-0.8,1.7-0.8h209c0.7,0,1.3,0.3,1.7,0.8c31.9,41,50.2,99.3,50.2,159.7
				c0,60.2-18.2,118.3-49.9,159.4C2302,1531.3,2301.3,1531.6,2300.7,1531.6z M2092.2,1527.3h207.4c30.7-40.3,48.4-97,48.4-155.9
				c0-59.1-17.7-116-48.6-156.3h-206.9c-30.9,40.3-48.6,97.2-48.6,156.3C2043.9,1430.3,2061.5,1487.1,2092.2,1527.3z"/>
		</g>
		<g>
			<rect x="2123.7" y="1216" fill="#FFD05F" width="50.1" height="309.4"/>
		</g>
		<g>
			<rect x="2220.6" y="1216" fill="#FFD05F" width="50.1" height="309.4"/>
		</g>
		<g>
			<path fill="#592403" d="M2055.1,1283.7c0,0-0.9-7.4,12.5-31.6l256.8,0c0,0,10.2,24.1,12.5,31.6H2055.1z"/>
			<path fill="#592403" d="M2336.8,1285.8C2336.8,1285.8,2336.8,1285.8,2336.8,1285.8h-281.8c-1.1,0-2-0.8-2.1-1.9
				c-0.1-0.8-0.6-8.8,12.7-32.9c0.4-0.7,1.1-1.1,1.9-1.1l256.8,0c0.9,0,1.6,0.5,2,1.3c0.4,1,10,23.5,12.4,31.4
				c0.2,0.3,0.3,0.6,0.3,1C2339,1284.9,2338,1285.8,2336.8,1285.8z M2057.4,1281.6h276.5c-2.8-7.8-9.1-22.9-10.9-27.3l-254.1,0
				C2060.2,1270,2057.9,1278.2,2057.4,1281.6z"/>
		</g>
		<g>
			<path fill="#592403" d="M2336.8,1458.8c0,0,0.9,7.4-12.5,31.6h-256.8c0,0-10.2-24.1-12.5-31.6H2336.8z"/>
			<path fill="#592403" d="M2324.3,1492.5h-256.8c-0.9,0-1.6-0.5-2-1.3c-0.4-1-10.3-24.3-12.6-31.8c-0.2-0.6-0.1-1.3,0.3-1.9
				c0.4-0.5,1-0.9,1.7-0.9h281.7c1.1,0,2,0.8,2.1,1.9c0.1,0.8,0.6,8.8-12.7,32.9C2325.8,1492.1,2325.1,1492.5,2324.3,1492.5z
				 M2069,1488.3h254.1c8.6-15.8,10.9-24,11.4-27.3H2058C2060.8,1468.8,2067.1,1483.8,2069,1488.3z"/>
		</g>
	</g>
	<g>
		<g>
			<path fill="#FFDF45" d="M1605.7,488.2c0,0,2.2,36.7-23.8,43.3c0,0,14.3,25.7-12.6,38.4c0,0,2.1,43.2-36.1,36.1
				c0,0-11.7,22.3-37.7,11.8c0,0-26.1,32.2-53.5,13.3l-85.4-85.4c0,0-13.3-40.5,18.7-49.5c0,0-11.1-30.9,13.3-39.1
				c0,0-0.7-44.5,38.2-38.2c0,0,13.4-24.7,36.9-11.1c0,0,16.7-29.2,45.1-16.3L1605.7,488.2z"/>
			<path fill="#592403" d="M1460.3,639.1c-6.8,0-13.3-2.1-19.4-6.3c-0.1-0.1-0.2-0.2-0.3-0.2l-85.4-85.4c-0.2-0.2-0.4-0.5-0.5-0.8
				c-0.3-0.9-7.1-22,1.3-37.8c3.5-6.6,9.1-11.2,16.7-13.8c-1.4-4.9-4.1-17.4,0.8-27.5c2.6-5.4,7-9.3,13-11.6
				c0.2-5,1.5-20.9,11.4-30.9c6.8-6.9,16.1-9.6,27.8-8.1c2.5-3.9,10.8-15,24.3-15c4.3,0,8.6,1.1,13,3.4c3.4-5,14.3-18.9,31.6-18.9
				c5,0,10.1,1.2,15.1,3.5c0.2,0.1,0.4,0.3,0.6,0.4l96.8,96.8c0.4,0.4,0.6,0.9,0.6,1.4c0,0.4,1.9,36.2-22.9,44.7
				c1.8,4.1,4.6,12.9,1.7,21.9c-2.2,6.9-7.3,12.4-15.1,16.4c0,4.7-0.7,19.9-9.9,29.6c-6.4,6.8-15.6,9.3-27.2,7.5
				c-2.5,3.8-10.6,14.4-25.5,14.4c-4,0-8.3-0.8-12.6-2.4C1492.4,624.6,1478.1,639.1,1460.3,639.1z M1443.5,629.4
				c5.3,3.6,11,5.5,16.8,5.5c18.5,0,33.5-18.3,33.7-18.5c0.6-0.7,1.6-1,2.4-0.6c4.3,1.7,8.6,2.6,12.5,2.6
				c15.3,0,22.4-13.4,22.5-13.5c0.4-0.8,1.3-1.3,2.3-1.1c10.7,2,19.1,0,24.8-6c9.5-10,8.8-27.7,8.7-27.9c0-0.9,0.4-1.7,1.2-2
				c7.4-3.5,12.2-8.4,14.1-14.5c3.3-10.3-2.5-20.8-2.5-20.9c-0.3-0.6-0.4-1.3-0.1-1.9c0.3-0.6,0.8-1.1,1.4-1.2
				c22-5.5,22.3-35.1,22.2-40.3l-95.9-95.9c-4.4-2-8.8-2.9-13-2.9c-18.2,0-28.9,18.3-29,18.5c-0.3,0.5-0.7,0.8-1.3,1
				s-1.1,0.1-1.6-0.2c-4.4-2.5-8.6-3.8-12.7-3.8c-13.5,0-21.2,14-21.3,14.1c-0.4,0.8-1.3,1.2-2.2,1.1c-10.8-1.8-19.4,0.5-25.5,6.6
				c-10.4,10.6-10.3,29.3-10.2,29.4c0,0.9-0.6,1.8-1.5,2c-5.6,1.9-9.6,5.2-11.9,10c-5.4,11,0,26.2,0,26.4c0.2,0.6,0.2,1.2-0.1,1.7
				c-0.3,0.5-0.7,0.9-1.3,1.1c-7.5,2.1-13,6.3-16.2,12.4c-6.9,13-2.1,30.9-1.2,34L1443.5,629.4z"/>
		</g>
		<g>
			
				<rect x="1303.2" y="530.4" transform="matrix(0.7071 0.7071 -0.7071 0.7071 862.5267 -733.4468)" fill="#592403" width="26.8" height="288"/>
			<path fill="#592403" d="M1224.3,787.9c-0.6,0-1.1-0.2-1.5-0.6l-18.9-18.9c-0.8-0.8-0.8-2.2,0-3l203.6-203.6c0.8-0.8,2.2-0.8,3,0
				l18.9,18.9c0.8,0.8,0.8,2.2,0,3l-203.6,203.6C1225.4,787.6,1224.8,787.9,1224.3,787.9z M1208.3,766.8l15.9,15.9l200.6-200.6
				l-15.9-15.9L1208.3,766.8z"/>
		</g>
		<g>
			<path fill="#FFA100" d="M1564.5,523.1c-0.7-0.7-94.4-94.4-95.1-95.1c-7.1-7.1-18.7-7.1-25.8,0c-7.1,7.1-7.1,18.7,0,25.8
				c0.7,0.7,94.4,94.4,95.1,95.1c7.1,7.1,18.7,7.1,25.8,0C1571.6,541.8,1571.6,530.2,1564.5,523.1z"/>
			<path fill="#592403" d="M1551.6,556.4c-5.4,0-10.6-2.1-14.4-6l-1.7-1.7c-12.7-12.7-92.8-92.8-93.4-93.4c-7.9-7.9-7.9-20.9,0-28.8
				c3.8-3.8,9-6,14.4-6c5.4,0,10.6,2.1,14.4,6c0.9,0.9,94.2,94.2,95.1,95.1c3.8,3.9,6,9,6,14.4c0,5.4-2.1,10.6-6,14.4
				C1562.1,554.3,1557,556.4,1551.6,556.4z M1456.4,424.8c-4.3,0-8.4,1.7-11.4,4.7c-6.3,6.3-6.3,16.5,0,22.8
				c0.6,0.6,80.7,80.7,93.4,93.4l1.7,1.7c3,3,7.1,4.7,11.4,4.7s8.4-1.7,11.4-4.7c3-3,4.7-7.1,4.7-11.4c0-4.3-1.7-8.4-4.7-11.4
				c-0.9-0.9-94.2-94.2-95.1-95.1C1464.8,426.5,1460.7,424.8,1456.4,424.8z"/>
		</g>
		<g>
			<path fill="#FFA100" d="M1579.5,486.6c-0.7-0.7-73-73-73.6-73.6c-7.1-7.1-18.7-7.1-25.8,0c-7.1,7.1-7.1,18.7,0,25.8
				c0.7,0.7,72.9,73,73.6,73.6c7.1,7.1,18.7,7.1,25.8,0C1586.7,505.3,1586.7,493.7,1579.5,486.6z"/>
			<path fill="#592403" d="M1566.6,519.9c-5.4,0-10.6-2.1-14.4-6c-0.7-0.7-73-73-73.6-73.7c-3.8-3.8-6-9-6-14.4
				c0-5.4,2.1-10.6,6-14.4c3.8-3.8,9-6,14.4-6c5.4,0,10.6,2.1,14.4,6c0.7,0.7,72.9,72.9,73.6,73.6c7.9,7.9,7.9,20.9,0,28.8
				C1577.2,517.7,1572.1,519.9,1566.6,519.9z M1493,409.7c-4.3,0-8.4,1.7-11.4,4.7c-3,3-4.7,7.1-4.7,11.4s1.7,8.4,4.7,11.4
				c0.7,0.7,73,73,73.6,73.6c3,3,7.1,4.7,11.4,4.7s8.4-1.7,11.4-4.7c6.3-6.3,6.3-16.5,0-22.8c-0.7-0.7-73-73-73.6-73.6
				C1501.3,411.4,1497.3,409.7,1493,409.7z"/>
		</g>
		<g>
			<path fill="#FFA100" d="M1551.6,561.8c-0.7-0.7-120.2-120.2-120.9-120.9c-7.1-7.1-18.7-7.1-25.8,0c-7.1,7.1-7.1,18.7,0,25.8
				c0.7,0.7,120.2,120.2,120.9,120.9c7.1,7.1,18.7,7.1,25.8,0C1558.7,580.5,1558.7,569,1551.6,561.8z"/>
			<path fill="#592403" d="M1538.7,595.1c-5.4,0-10.6-2.1-14.4-6c-0.3-0.3-30.4-30.4-60.5-60.5c-30.1-30.1-60.1-60.1-60.5-60.5
				c-7.9-7.9-7.9-20.9,0-28.8c3.8-3.8,9-6,14.4-6c5.4,0,10.6,2.1,14.4,6c0.7,0.7,120.2,120.2,120.9,120.9c7.9,7.9,7.9,20.9,0,28.8
				C1549.2,593,1544.1,595.1,1538.7,595.1z M1417.7,437.7c-4.3,0-8.4,1.7-11.4,4.7c-6.3,6.3-6.3,16.5,0,22.8
				c0.3,0.3,30.4,30.4,60.5,60.5c30.1,30.1,60.1,60.1,60.5,60.5c3,3,7.1,4.7,11.4,4.7c4.3,0,8.4-1.7,11.4-4.7
				c6.3-6.3,6.3-16.5,0-22.8c-0.7-0.7-120.2-120.2-120.9-120.9C1426.1,439.4,1422,437.7,1417.7,437.7z"/>
		</g>
		<g>
			<path fill="#FFA100" d="M1391.9,505.4c0.7,0.7,94.4,94.4,95.1,95.1c7.1,7.1,18.7,7.1,25.8,0c7.1-7.1,7.1-18.7,0-25.8
				c-0.7-0.7-94.4-94.4-95.1-95.1c-7.1-7.1-18.7-7.1-25.8,0S1384.8,498.3,1391.9,505.4z"/>
			<path fill="#592403" d="M1499.9,608c-5.4,0-10.6-2.1-14.4-6c-0.7-0.7-94.4-94.4-95.1-95.1c-7.9-7.9-7.9-20.9,0-28.8
				c3.8-3.8,9-6,14.4-6c5.4,0,10.6,2.1,14.4,6c0.3,0.4,24,24,47.6,47.6c23.6,23.6,47.2,47.2,47.6,47.6c7.9,7.9,7.9,20.9,0,28.8
				C1510.5,605.9,1505.4,608,1499.9,608z M1404.8,476.4c-4.3,0-8.4,1.7-11.4,4.7c-6.3,6.3-6.3,16.5,0,22.8
				c0.7,0.7,94.4,94.4,95.1,95.1c3,3,7.1,4.7,11.4,4.7s8.4-1.7,11.4-4.7c6.3-6.3,6.3-16.5,0-22.8c-0.3-0.4-24-24-47.6-47.6
				c-23.6-23.6-47.2-47.2-47.6-47.6C1413.2,478.1,1409.1,476.4,1404.8,476.4z"/>
		</g>
		<g>
			<path fill="#FFA100" d="M1376.8,542c0.7,0.7,73,73,73.6,73.6c7.1,7.1,18.7,7.1,25.8,0c7.1-7.1,7.1-18.7,0-25.8
				c-0.7-0.7-73-73-73.6-73.6c-7.1-7.1-18.7-7.1-25.8,0C1369.7,523.3,1369.7,534.8,1376.8,542z"/>
			<path fill="#592403" d="M1463.4,623.1C1463.4,623.1,1463.4,623.1,1463.4,623.1c-5.4,0-10.6-2.1-14.4-6l-73.6-73.6
				c-3.8-3.8-6-9-6-14.4s2.1-10.6,6-14.4s9-6,14.4-6s10.6,2.1,14.4,6c0.6,0.6,60.7,60.7,71.9,71.9l1.8,1.8c7.9,7.9,7.9,20.9,0,28.8
				C1474,621,1468.8,623.1,1463.4,623.1z M1389.7,512.9c-4.3,0-8.4,1.7-11.4,4.7c-3,3-4.7,7.1-4.7,11.4s1.7,8.4,4.7,11.4l73.6,73.6
				c3,3,7.1,4.7,11.4,4.7s8.4-1.7,11.4-4.7c6.3-6.3,6.3-16.5,0-22.8l-1.8-1.8c-11.1-11.1-71.3-71.3-71.9-71.9
				C1398.1,514.6,1394.1,512.9,1389.7,512.9z"/>
		</g>
		<g>
			<path fill="#FFD05F" d="M1533.1,445.4c-14.4-14.4-28.9-28.9-29.1-29.1c-5.6-5.6-14.7-5.7-20.2-0.2c-5.5,5.5-5.4,14.6,0.2,20.2
				c0.3,0.3,14.7,14.7,29.1,29.1L1533.1,445.4z"/>
		</g>
		<g>
			<path fill="#FFD05F" d="M1429.7,549.2c-14.4-14.4-28.9-28.9-29.1-29.1c-5.6-5.6-14.7-5.7-20.2-0.2c-5.5,5.5-5.5,14.6,0.2,20.2
				c0.3,0.3,14.7,14.7,29.1,29.1L1429.7,549.2z"/>
		</g>
		<g>
			<path fill="#FFD05F" d="M1506.3,470.7c-19-19-37.9-37.9-38.2-38.2c-5.7-5.7-15-5.7-20.7,0s-5.7,15,0,20.7
				c0.3,0.3,19.2,19.2,38.2,38.2L1506.3,470.7z"/>
		</g>
		<g>
			<path fill="#FFD05F" d="M1455.6,522.6c-19-19-37.9-37.9-38.2-38.2c-5.7-5.7-15-5.7-20.7,0c-5.7,5.7-5.7,15,0,20.7
				c0.3,0.3,19.2,19.2,38.2,38.2L1455.6,522.6z"/>
		</g>
		<g>
			<path fill="#FFD05F" d="M1481.6,497c-24.1-24.1-48.3-48.3-48.6-48.6c-5.7-5.7-15-5.7-20.7,0c-5.7,5.7-5.7,15,0,20.7
				c0.3,0.3,24.4,24.4,48.6,48.6L1481.6,497z"/>
		</g>
	</g>
	<g>
		<g>
			<path fill="#FFDF45" d="M715.6,1246.7c2.2-4,3.4-8.6,3.4-13.5c0-15.8-12.8-28.6-28.6-28.6c-1.5,0-161.4,0-163,0
				c-15.8,0-28.6,12.8-28.6,28.6c0,4.9,1.2,9.5,3.4,13.6c-44.6,32.8-73.5,85.6-73.5,145.2c0,58.8,28.2,111,71.7,143.9
				c4.3,10.5,14.6,17.9,26.6,17.9c1.6,0,162.7,0,164.3,0c12.3,0,22.8-7.8,26.9-18.7c43-32.9,70.7-84.7,70.7-143.1
				C789.1,1332.3,760.2,1279.5,715.6,1246.7z"/>
			<path fill="#592403" d="M691.5,1555.7H527.2c-12.4,0-23.5-7.3-28.4-18.7c-45.8-34.8-72.1-87.7-72.1-145.2
				c0-57.1,27.2-111.5,72.9-145.8c-1.9-4-2.8-8.5-2.8-12.9c0-8.2,3.2-15.9,9-21.7c5.8-5.8,13.5-9,21.7-9h163
				c16.9,0,30.7,13.8,30.7,30.7c0,4.5-1,8.9-2.8,12.9c45.7,34.3,72.9,88.7,72.9,145.8c0,57-25.9,109.6-71.1,144.4
				C715.5,1547.9,704.1,1555.7,691.5,1555.7z M527.5,1206.7c-7.1,0-13.7,2.8-18.7,7.7c-5,5-7.7,11.6-7.7,18.7
				c0,4.4,1.1,8.7,3.2,12.5c0.5,0.9,0.2,2.1-0.6,2.7c-45.5,33.5-72.6,87.1-72.6,143.4c0,56.4,25.8,108.2,70.9,142.2
				c0.3,0.2,0.5,0.5,0.7,0.9c4.1,10.1,13.8,16.6,24.7,16.6h164.3c11,0,21-7,24.9-17.3c0.1-0.4,0.4-0.7,0.7-0.9
				c44.4-34,69.9-85.5,69.9-141.4c0-56.4-27.2-110-72.6-143.5c-0.9-0.6-1.1-1.8-0.6-2.7c2.1-3.8,3.2-8.2,3.2-12.5
				c0-14.6-11.9-26.4-26.4-26.4H527.5z"/>
		</g>
		<g>
			<path fill="#FFA100" d="M706.7,1259.7c2-3.7,3.1-7.9,3.1-12.4c0-14.5-11.7-26.2-26.2-26.2c-1.4,0-148,0-149.4,0
				c-14.5,0-26.2,11.7-26.2,26.2c0,4.5,1.1,8.7,3.1,12.4c-40.8,30.1-67.4,78.4-67.4,133c0,53.9,25.8,101.7,65.8,131.9
				c3.9,9.6,13.4,16.4,24.4,16.4c1.4,0,149.1,0,150.6,0c11.3,0,20.9-7.1,24.7-17.1c39.4-30.2,64.8-77.7,64.8-131.1
				C774.1,1338.2,747.5,1289.8,706.7,1259.7z"/>
			<path fill="#592403" d="M684.6,1543.2H534c-11.4,0-21.6-6.7-26.1-17.2c-42-31.9-66.1-80.5-66.1-133.2
				c0-52.3,24.9-102.2,66.8-133.7c-1.7-3.7-2.6-7.7-2.6-11.8c0-7.6,2.9-14.7,8.3-20s12.5-8.3,20-8.3c6,0,148,0,149.4,0
				c15.6,0,28.3,12.7,28.3,28.3c0,4.1-0.9,8.1-2.6,11.8c41.9,31.5,66.8,81.3,66.8,133.7c0,52.2-23.7,100.5-65.2,132.4
				C706.7,1536,696.2,1543.2,684.6,1543.2z M683.7,1223.3c-1.4,0-143.3,0-149.4,0c-6.4,0-12.5,2.5-17,7s-7,10.6-7,17
				c0,4,1,7.9,2.9,11.4c0.5,0.9,0.2,2.1-0.6,2.7c-41.6,30.6-66.5,79.7-66.5,131.3c0,51.6,23.7,99,64.9,130.2
				c0.3,0.2,0.5,0.5,0.7,0.9c3.8,9.1,12.6,15.1,22.4,15.1h150.6c10,0,19.2-6.3,22.7-15.7c0.1-0.4,0.4-0.7,0.7-0.9
				c40.6-31.1,64-78.3,64-129.4c0-51.6-24.9-100.7-66.5-131.3c-0.9-0.6-1.1-1.8-0.6-2.7c1.9-3.5,2.9-7.4,2.9-11.4
				C707.7,1234.1,696.9,1223.3,683.7,1223.3z"/>
		</g>
		<g>
			<path fill="#FFD05F" d="M609,1234.3c-34.2,0-68.4,0-69,0c-13.4,0-24.2,10.8-24.2,24.2c0,4.2,1,8.1,2.9,11.5
				c-37.7,27.8-62.2,72.5-62.2,122.9c0,49.8,23.9,94,60.7,121.8c3.6,8.9,12.4,15.1,22.5,15.1c0.7,0,34.9,0,69.2,0V1234.3z"/>
		</g>
		<g>
			<path fill="#592403" d="M696.8,1199.6c-1.7,0-174.1,0-175.7,0c-17,0-30.8,13.8-30.8,30.8c0,17,13.8,30.8,30.8,30.8
				c1.7,0,174.1,0,175.7,0c17,0,30.8-13.8,30.8-30.8C727.6,1213.4,713.8,1199.6,696.8,1199.6z"/>
			<path fill="#592403" d="M696.8,1263.3H521.1c-18.2,0-32.9-14.8-32.9-32.9c0-8.8,3.4-17.1,9.6-23.3c6.2-6.2,14.5-9.6,23.3-9.6
				c7.1,0,174.1,0,175.7,0c18.2,0,32.9,14.8,32.9,32.9C729.8,1248.5,715,1263.3,696.8,1263.3z M696.8,1201.7c-1.6,0-168.6,0-175.7,0
				c-7.7,0-14.9,3-20.3,8.4c-5.4,5.4-8.4,12.6-8.4,20.3c0,15.8,12.9,28.7,28.7,28.7h175.7c15.8,0,28.7-12.9,28.7-28.7
				C725.5,1214.6,712.6,1201.7,696.8,1201.7z"/>
		</g>
		<g>
			<path fill="#592403" d="M609,1199.6c-43.5,0-87,0-87.9,0c-17,0-30.8,13.8-30.8,30.8c0,17,13.8,30.8,30.8,30.8
				c0.8,0,44.3,0,87.9,0V1199.6z"/>
			<path fill="#592403" d="M609,1263.3h-87.9c-18.2,0-32.9-14.8-32.9-32.9c0-8.8,3.4-17.1,9.6-23.3c6.2-6.2,14.5-9.6,23.3-9.6H609
				c1.2,0,2.1,1,2.1,2.1v61.6C611.1,1262.3,610.1,1263.3,609,1263.3z M521.1,1201.7c-7.7,0-14.9,3-20.3,8.4
				c-5.4,5.4-8.4,12.6-8.4,20.3c0,15.8,12.9,28.7,28.7,28.7h85.7v-57.3H521.1z"/>
		</g>
	</g>
	<g>
		<g>
			<polygon fill="#FFDF45" points="1986,650.8 2033.3,584.2 1986,520.8 2045.4,434.4 2110.4,434.4 2152.2,374.3 2241.3,374.3 
				2299.7,453.6 2253.5,524.5 2279.6,564.5 2343.7,563.6 2405.9,645.9 2349.7,727 2283.9,727.6 2238,790.3 2154.4,792.5 2109.3,732 
				2047.6,734.2 			"/>
			<path fill="#592403" d="M2154.4,794.6c-0.7,0-1.3-0.3-1.7-0.9l-44.5-59.6l-60.5,2.2c-0.7,0-1.4-0.3-1.8-0.9l-61.6-83.3
				c-0.5-0.7-0.6-1.7,0-2.5l46.4-65.4l-46.4-62.1c-0.5-0.7-0.6-1.7,0-2.5l59.4-86.4c0.4-0.6,1.1-0.9,1.8-0.9h63.8l41.2-59.2
				c0.4-0.6,1.1-0.9,1.7-0.9h89.1c0.7,0,1.3,0.3,1.7,0.9l58.3,79.3c0.5,0.7,0.6,1.7,0.1,2.4l-45.4,69.7l24.7,37.9l63-0.9
				c0.7,0,1.3,0.3,1.7,0.8l62.2,82.3c0.6,0.7,0.6,1.7,0.1,2.5l-56.1,81.1c-0.4,0.6-1,0.9-1.7,0.9l-64.8,0.5l-45.3,61.9
				c-0.4,0.5-1,0.9-1.7,0.9L2154.4,794.6C2154.4,794.6,2154.4,794.6,2154.4,794.6z M2109.3,729.8c0.7,0,1.3,0.3,1.7,0.9l44.5,59.6
				l81.5-2.1l45.3-61.9c0.4-0.5,1-0.9,1.7-0.9l64.7-0.5l54.6-79l-60.6-80.2l-63,0.9c-0.8,0-1.4-0.4-1.8-1l-26.1-40
				c-0.5-0.7-0.5-1.6,0-2.3l45.4-69.6l-56.8-77.3h-87l-41.2,59.2c-0.4,0.6-1.1,0.9-1.7,0.9h-63.8l-57.9,84.3l46.4,62.1
				c0.6,0.7,0.6,1.8,0,2.5l-46.4,65.4l60,81.2L2109.3,729.8C2109.2,729.8,2109.2,729.8,2109.3,729.8z"/>
		</g>
		<g>
			<polygon fill="#FFA100" points="2111.8,587.2 2050.9,587.2 2007.9,646.9 2050.9,706.7 2111.8,706.7 2154.8,646.9 			"/>
			<path fill="#592403" d="M2111.8,708.8h-60.9c-0.7,0-1.3-0.3-1.7-0.9l-43.1-59.8c-0.5-0.7-0.5-1.7,0-2.5l43.1-59.8
				c0.4-0.6,1-0.9,1.7-0.9h60.9c0.7,0,1.3,0.3,1.7,0.9l43.1,59.8c0.5,0.7,0.5,1.7,0,2.5l-43.1,59.8
				C2113.1,708.5,2112.5,708.8,2111.8,708.8z M2052,704.5h58.7l41.5-57.6l-41.5-57.6H2052l-41.5,57.6L2052,704.5z"/>
		</g>
		<g>
			<polygon fill="#FFA100" points="2226.8,524.5 2166,524.5 2122.9,584.2 2166,644 2226.8,644 2269.9,584.2 			"/>
			<path fill="#592403" d="M2226.8,646.1H2166c-0.7,0-1.3-0.3-1.7-0.9l-43.1-59.8c-0.5-0.7-0.5-1.7,0-2.5l43.1-59.8
				c0.4-0.6,1-0.9,1.7-0.9h60.9c0.7,0,1.3,0.3,1.7,0.9l43.1,59.8c0.5,0.7,0.5,1.7,0,2.5l-43.1,59.8
				C2228.2,645.8,2227.5,646.1,2226.8,646.1z M2167,641.8h58.7l41.5-57.6l-41.5-57.6H2167l-41.5,57.6L2167,641.8z"/>
		</g>
		<g>
			<polygon fill="#FFA100" points="2111.8,459.1 2050.9,459.1 2007.9,518.8 2050.9,578.6 2111.8,578.6 2154.9,518.8 			"/>
			<path fill="#592403" d="M2111.8,580.7h-60.9c-0.7,0-1.3-0.3-1.7-0.9l-43.1-59.8c-0.5-0.7-0.5-1.7,0-2.5l43.1-59.8
				c0.4-0.6,1-0.9,1.7-0.9h60.9c0.7,0,1.3,0.3,1.7,0.9l43.1,59.8c0.5,0.7,0.5,1.7,0,2.5l-43.1,59.8
				C2113.1,580.4,2112.5,580.7,2111.8,580.7z M2052,576.5h58.7l41.5-57.6l-41.5-57.6H2052l-41.5,57.6L2052,576.5z"/>
		</g>
		<g>
			<polygon fill="#FFA100" points="2226.8,654.8 2166,654.8 2122.9,714.6 2166,774.3 2226.8,774.3 2269.9,714.6 			"/>
			<path fill="#592403" d="M2226.8,776.5H2166c-0.7,0-1.3-0.3-1.7-0.9l-43.1-59.8c-0.5-0.7-0.5-1.7,0-2.5l43.1-59.8
				c0.4-0.6,1-0.9,1.7-0.9h60.9c0.7,0,1.3,0.3,1.7,0.9l43.1,59.8c0.5,0.7,0.5,1.7,0,2.5l-43.1,59.8
				C2228.2,776.1,2227.5,776.5,2226.8,776.5z M2167,772.2h58.7l41.5-57.6l-41.5-57.6H2167l-41.5,57.6L2167,772.2z"/>
		</g>
		<g>
			<polygon fill="#FFA100" points="2341.9,589.2 2281,589.2 2238,648.9 2281,708.7 2341.9,708.7 2384.9,648.9 			"/>
			<path fill="#592403" d="M2341.9,710.8H2281c-0.7,0-1.3-0.3-1.7-0.9l-43.1-59.8c-0.5-0.7-0.5-1.7,0-2.5l43.1-59.8
				c0.4-0.6,1-0.9,1.7-0.9h60.9c0.7,0,1.3,0.3,1.7,0.9l43.1,59.8c0.5,0.7,0.5,1.7,0,2.5l-43.1,59.8
				C2343.2,710.5,2342.6,710.8,2341.9,710.8z M2282.1,706.5h58.7l41.5-57.6l-41.5-57.6h-58.7l-41.5,57.6L2282.1,706.5z"/>
		</g>
		<g>
			<polygon fill="#FFA100" points="2226.8,394.3 2166,394.3 2122.9,454 2166,513.8 2226.8,513.8 2269.9,454 			"/>
			<path fill="#592403" d="M2226.8,515.9H2166c-0.7,0-1.3-0.3-1.7-0.9l-43.1-59.8c-0.5-0.7-0.5-1.7,0-2.5l43.1-59.8
				c0.4-0.6,1-0.9,1.7-0.9h60.9c0.7,0,1.3,0.3,1.7,0.9l43.1,59.8c0.5,0.7,0.5,1.7,0,2.5l-43.1,59.8
				C2228.2,515.6,2227.5,515.9,2226.8,515.9z M2167,511.6h58.7l41.5-57.6l-41.5-57.6H2167l-41.5,57.6L2167,511.6z"/>
		</g>
		<g>
			<polygon fill="#FFD05F" points="2195.9,403.7 2170.3,403.7 2134.1,454 2170.3,504.3 2195.9,504.3 			"/>
		</g>
		<g>
			<polygon fill="#FFD05F" points="2195.9,533.1 2170.3,533.1 2134.1,583.4 2170.3,633.7 2195.9,633.7 			"/>
		</g>
		<g>
			<polygon fill="#FFD05F" points="2195.9,665.1 2170.3,665.1 2134.1,715.4 2170.3,765.7 2195.9,765.7 			"/>
		</g>
		<g>
			<polygon fill="#FFD05F" points="2311.5,598.6 2285.8,598.6 2249.6,648.9 2285.8,699.2 2311.5,699.2 			"/>
		</g>
		<g>
			<polygon fill="#FFD05F" points="2081.4,468.6 2055.7,468.6 2019.5,518.8 2055.7,569.1 2081.4,569.1 			"/>
		</g>
		<g>
			<polygon fill="#FFD05F" points="2081.4,600.5 2055.7,600.5 2019.5,650.8 2055.7,701.1 2081.4,701.1 			"/>
		</g>
	</g>
	<g>
		<g>
			<path fill="#FFDF45" d="M771.5,538.9c62.7-62.7,0-128.6,0-128.6c-53.3-64.6-125.2-16.8-125.2-16.8
				c-147.9,46.7-176.1,179.1-176.1,179.1c-3.9-1.3-7.6-2.4-11-3.2c-7.3-2.8-15.2-4.3-23.5-4.5c-38.5-0.6-70.3,30.1-70.9,68.6
				c-0.6,38.5,30.1,70.3,68.6,70.9c19.2,0.3,36.7-7.1,49.5-19.5c32.6,31.5,64.1,32.2,64.1,32.2c1.2,82.4,48.4,62.9,48.4,62.9
				c25.2,38.7,50.9,0,50.9,0c28.5,30.6,50.9-2.7,50.9-2.7c23.7,32.7,63.6-60.3,63.6-60.3C962.2,638.4,771.5,538.9,771.5,538.9z"/>
			<path fill="#592403" d="M619.8,799.5c-9.2,0-17.6-5.6-25.3-16.8c-2.1,0.6-5.9,1.6-10.6,1.6c-14.1,0-37.7-8.5-39-65.1
				c-7.5-0.7-34.1-5-62-31.3c-13.3,12.1-30.3,18.7-48.3,18.7l-1.2,0c-19.2-0.3-37.1-8.1-50.5-21.9c-13.4-13.8-20.5-32-20.2-51.2
				c0.6-39.4,33.6-71.3,73.1-70.7c8.3,0.1,16.4,1.7,24.1,4.6c2.9,0.7,5.8,1.6,8.9,2.5c2.1-8.2,10.7-37.5,32.4-70.5
				c23.5-35.8,67.6-83.5,144.4-107.8c2.9-1.9,27.6-17.2,58.5-17.2c27,0,50.3,11.6,69.2,34.6c0.5,0.6,61.9,66.6,1.9,129.4
				c14.4,8,82.9,48.5,80.2,97.4c-1.7,31.6-32.9,59.6-92.8,83.2c-3.6,8.1-30.5,67.7-53.7,67.7c0,0,0,0,0,0c-4.3,0-8.1-1.9-11.5-5.6
				c-3.7,4.5-13.3,14.3-26.4,14.3c-8.3,0-16.5-4-24.4-11.8C642.8,788.3,632.7,799.5,619.8,799.5z M595.4,778.1c0.7,0,1.4,0.3,1.8,1
				c7,10.8,14.6,16.2,22.6,16.2c13.8,0,24.7-16.1,24.8-16.2c0.4-0.5,0.9-0.9,1.6-0.9c0.6,0,1.3,0.2,1.7,0.7
				c7.6,8.1,15.3,12.2,23,12.2c14.5,0,24.5-14.5,24.6-14.7c0.4-0.6,1-0.9,1.7-0.9c0.7,0,1.3,0.3,1.8,0.9c3,4.1,6.2,6.1,9.8,6.1
				c0,0,0,0,0,0c17.9,0,42.3-47.6,50.1-65.9c0.2-0.5,0.6-0.9,1.2-1.1c58.7-23,89.3-49.9,90.9-79.8c2.7-50.8-79.6-94.3-80.5-94.8
				c-0.6-0.3-1-0.9-1.1-1.6c-0.1-0.7,0.1-1.3,0.6-1.8c25.3-25.3,33.1-54.1,23-85.5c-7.6-23.6-22.9-40-23.1-40.1
				c-18.2-22-40.4-33.1-66.1-33.1c-30.9,0-56.2,16.5-56.4,16.7c-0.2,0.1-0.3,0.2-0.5,0.3c-75.7,23.9-119.2,70.9-142.3,106.1
				c-25.1,38.2-32.3,71.2-32.4,71.5c-0.1,0.6-0.5,1.1-1,1.4c-0.5,0.3-1.2,0.4-1.7,0.2c-3.7-1.2-7.4-2.3-10.9-3.2
				c-0.1,0-0.2,0-0.2-0.1c-7.3-2.8-14.9-4.2-22.8-4.3l-1.2,0c-36.7,0-67,29.8-67.6,66.5c-0.3,18.1,6.5,35.2,19,48.1
				c12.6,13,29.4,20.3,47.5,20.6l1.1,0c17.5,0,34.2-6.7,46.8-18.9c0.8-0.8,2.1-0.8,3,0c31.6,30.5,62.4,31.6,62.7,31.6
				c1.1,0,2.1,1,2.1,2.1c0.8,54.7,22.1,62.8,34.8,62.8c6.1,0,10.6-1.8,10.7-1.8C594.8,778.1,595.1,778.1,595.4,778.1z"/>
		</g>
		<g>
			<path fill="#592403" d="M611.7,729.7L611.7,729.7l-28.4-28.6l-4.3,4.3l24.3,24.3l-20,20c0,0,0,0,0,0c-2.4,0-4.3,1.9-4.3,4.3
				c0,0,0,0,0,0h0h0c0,2.4,1.9,4.3,4.3,4.3h0h0c0,0,0,0,0,0c2.4,0,4.3-1.9,4.3-4.3c0,0,0,0,0,0L611.7,729.7L611.7,729.7z"/>
			<path fill="#592403" d="M583.3,760.4L583.3,760.4c-3.5,0-6.4-2.9-6.4-6.3c0,0,0-0.1,0-0.1c0-3.2,2.4-5.9,5.5-6.4l17.9-17.9
				l-22.8-22.8c-0.8-0.8-0.8-2.2,0-3l4.3-4.3c0.4-0.4,0.9-0.6,1.5-0.6l0,0c0.6,0,1.1,0.2,1.5,0.6l28.5,28.5c0.4,0.4,0.6,0.9,0.6,1.5
				c0,0.2,0,0.3-0.1,0.5c-0.1,0.4-0.2,0.8-0.6,1.2l-23.6,23.6C589.2,758,586.5,760.4,583.3,760.4z M581.1,753.9
				C581.1,753.9,581.1,754,581.1,753.9c0,1.3,1,2.2,2.2,2.2l0,2.1v-2.1c1.2,0,2.2-0.9,2.2-2.1c0,0,0,0,0-0.1c0-0.6,0.2-1.1,0.6-1.5
				l22.8-22.8l-25.6-25.6l-1.3,1.3l22.8,22.8c0.4,0.4,0.6,0.9,0.6,1.5c0,0.6-0.2,1.1-0.6,1.5l-20,20c-0.4,0.4-0.9,0.6-1.5,0.6
				C582.1,751.8,581.1,752.7,581.1,753.9z"/>
		</g>
		<g>
			<path fill="#592403" d="M646.2,729.7L646.2,729.7l-28.4-28.6l-4.3,4.3l24.3,24.3l-20,20c0,0,0,0,0,0c-2.4,0-4.3,1.9-4.3,4.3
				c0,0,0,0,0,0h0h0c0,2.4,1.9,4.3,4.3,4.3h0h0c0,0,0,0,0,0c2.4,0,4.3-1.9,4.3-4.3c0,0,0,0,0,0L646.2,729.7L646.2,729.7z"/>
			<path fill="#592403" d="M617.8,760.4L617.8,760.4c-3.5,0-6.3-2.8-6.4-6.3c0-0.1,0-0.1,0-0.2c0-3.2,2.4-5.9,5.5-6.4l17.9-17.9
				L612,706.9c-0.8-0.8-0.8-2.2,0-3l4.3-4.3c0.4-0.4,0.9-0.6,1.5-0.6l0,0c0.6,0,1.1,0.2,1.5,0.6l28.5,28.5c0.4,0.4,0.6,0.9,0.6,1.5
				c0,0.2,0,0.3-0.1,0.5c-0.1,0.4-0.2,0.8-0.6,1.2l-23.6,23.6C623.7,758,621,760.4,617.8,760.4z M615.6,753.9
				C615.6,753.9,615.6,753.9,615.6,753.9c0,1.3,1,2.3,2.2,2.3l0,2.1v-2.1c1.2,0,2.1-0.9,2.2-2.1c0,0,0-0.1,0-0.1
				c0-0.6,0.2-1.1,0.6-1.5l22.8-22.8l-25.6-25.6l-1.3,1.3l22.8,22.8c0.8,0.8,0.8,2.2,0,3l-20,20c-0.4,0.4-0.9,0.6-1.5,0.6
				C616.6,751.8,615.7,752.7,615.6,753.9z"/>
		</g>
		<g>
			<path fill="#592403" d="M697.1,729.7L697.1,729.7l-28.4-28.6l-4.3,4.3l24.3,24.3l-20,20c0,0,0,0,0,0c-2.4,0-4.3,1.9-4.3,4.3
				c0,0,0,0,0,0h0h0c0,2.4,1.9,4.3,4.3,4.3h0h0c0,0,0,0,0,0c2.4,0,4.3-1.9,4.3-4.3c0,0,0,0,0,0L697.1,729.7L697.1,729.7z"/>
			<path fill="#592403" d="M668.7,760.4L668.7,760.4c-3.5,0-6.4-2.9-6.4-6.3c0,0,0-0.1,0-0.1c0-3.2,2.4-5.9,5.5-6.4l17.9-17.9
				l-22.8-22.8c-0.8-0.8-0.8-2.2,0-3l4.3-4.3c0.4-0.4,0.9-0.6,1.5-0.6l0,0c0.6,0,1.1,0.2,1.5,0.6l28.5,28.5c0.4,0.4,0.6,0.9,0.6,1.5
				c0,0.2,0,0.3-0.1,0.5c-0.1,0.4-0.2,0.8-0.6,1.2l-23.6,23.6C674.6,758,672,760.4,668.7,760.4z M666.6,753.9
				C666.6,753.9,666.6,754,666.6,753.9c0,1.3,1,2.2,2.2,2.2l0,2.1v-2.1c1.2,0,2.2-0.9,2.2-2.1c0,0,0,0,0-0.1c0-0.6,0.2-1.1,0.6-1.5
				l22.8-22.8l-25.6-25.6l-1.3,1.3l22.8,22.8c0.4,0.4,0.6,0.9,0.6,1.5c0,0.6-0.2,1.1-0.6,1.5l-20,20c-0.4,0.4-0.9,0.6-1.5,0.6
				C667.6,751.8,666.6,752.7,666.6,753.9z"/>
		</g>
		<g>
			<path fill="#592403" d="M731.7,729.7L731.7,729.7l-28.4-28.6l-4.3,4.3l24.3,24.3l-20,20c0,0,0,0,0,0c-2.4,0-4.3,1.9-4.3,4.3
				c0,0,0,0,0,0h0h0c0,2.4,1.9,4.3,4.3,4.3h0h0c0,0,0,0,0,0c2.4,0,4.3-1.9,4.3-4.3c0,0,0,0,0,0L731.7,729.7L731.7,729.7z"/>
			<path fill="#592403" d="M703.3,760.4L703.3,760.4c-3.5,0-6.4-2.9-6.4-6.3c0,0,0-0.1,0-0.1c0-3.2,2.4-5.9,5.5-6.4l17.9-17.9
				l-22.8-22.8c-0.8-0.8-0.8-2.2,0-3l4.3-4.3c0.4-0.4,0.9-0.6,1.5-0.6l0,0c0.6,0,1.1,0.2,1.5,0.6l28.5,28.5c0.4,0.4,0.6,0.9,0.6,1.5
				c0,0.2,0,0.3-0.1,0.5c-0.1,0.4-0.2,0.8-0.6,1.2l-23.6,23.6C709.2,758,706.5,760.4,703.3,760.4z M701.1,753.9
				C701.1,753.9,701.1,754,701.1,753.9c0,1.3,1,2.2,2.2,2.2l0,2.1v-2.1c1.2,0,2.1-0.9,2.2-2.1c0,0,0-0.1,0-0.1
				c0-0.6,0.2-1.1,0.6-1.5l22.8-22.8l-25.6-25.6l-1.3,1.3l22.8,22.8c0.4,0.4,0.6,0.9,0.6,1.5c0,0.6-0.2,1.1-0.6,1.5l-20,20
				c-0.4,0.4-0.9,0.6-1.5,0.6C702.1,751.8,701.1,752.7,701.1,753.9z"/>
		</g>
		<g>
			<path fill="#592403" d="M760.6,429.6c28.3,36.4,28.9,83.4-47.7,142.8c-76.6,59.4-176.8,59.8-189.8,41.6
				c-17.2-24.1,10.9-114.1,87.5-173.5C687.1,381,732.3,393.2,760.6,429.6z"/>
			<path fill="#592403" d="M564.7,626.7c-22,0-38.2-4.3-43.3-11.5c-19.1-26.9,13.3-118.6,87.9-176.4C645,411,676.6,397,703.1,397
				c23.1,0,43,10.6,59.1,31.4c16,20.7,21.4,42.4,15.9,64.6c-6.4,25.9-27.9,53.3-63.9,81.2C664.2,612.8,604.2,626.7,564.7,626.7z
				 M703.1,401.2c-25.6,0-56.3,13.8-91.3,40.9c-45.8,35.6-68.7,77.4-78.2,99.2c-13.6,31-17.1,59.7-8.8,71.5
				c4.2,5.9,19.8,9.7,39.9,9.7c38.8,0,97.8-13.6,146.9-51.7c35.2-27.3,56.2-53.8,62.4-78.8c5.2-21.2,0.3-41.1-15.1-61
				C743.4,410.9,725.1,401.2,703.1,401.2z"/>
		</g>
		<g>
			<path fill="#FFD05F" d="M829,633.8c0,46.1-78.6,83.5-175.5,83.5c-96.9,0-175.5-37.4-175.5-83.5c0-46.1,78.6-83.5,175.5-83.5
				C750.4,550.3,829,587.7,829,633.8z"/>
			<path fill="#592403" d="M653.5,719.4c-97.9,0-177.6-38.4-177.6-85.6c0-47.2,79.7-85.6,177.6-85.6s177.6,38.4,177.6,85.6
				C831.1,681,751.4,719.4,653.5,719.4z M653.5,552.4c-95.6,0-173.3,36.5-173.3,81.4s77.8,81.4,173.3,81.4s173.3-36.5,173.3-81.4
				S749.1,552.4,653.5,552.4z"/>
		</g>
		<g>
			<path fill="#FFA100" d="M575.3,559.1c-57.6,13.7-97.2,42-97.2,74.7s39.6,61,97.2,74.7V559.1z"/>
			<path fill="#592403" d="M575.3,710.6c-0.2,0-0.3,0-0.5-0.1c-61-14.5-98.8-43.9-98.8-76.8s37.9-62.3,98.8-76.8
				c0.6-0.2,1.3,0,1.8,0.4c0.5,0.4,0.8,1,0.8,1.7v149.5c0,0.7-0.3,1.3-0.8,1.7C576.2,710.5,575.7,710.6,575.3,710.6z M573.1,561.8
				c-56.6,14-93,42.1-93,72c0,29.9,36.4,58,93,72V561.8z"/>
		</g>
		<g>
			<path fill="#592403" d="M379.1,572.7L379.1,572.7l28.4,28.6l4.3-4.3l-24.3-24.3l20-20c0,0,0,0,0,0c2.4,0,4.3-1.9,4.3-4.3
				c0,0,0,0,0,0l0,0l0,0c0-2.4-1.9-4.3-4.3-4.3l0,0l0,0c0,0,0,0,0,0c-2.4,0-4.3,1.9-4.3,4.3c0,0,0,0,0,0L379.1,572.7L379.1,572.7z"
				/>
			<path fill="#592403" d="M407.6,603.4c-0.6,0-1.1-0.2-1.5-0.6l-28.5-28.5c-0.6-0.6-0.7-1.4-0.5-2.1c0.1-0.4,0.3-0.8,0.5-1.1
				l23.6-23.6c0.5-3.1,3.1-5.5,6.4-5.5c0.1,0,0.1,0,0.2,0c3.5,0.1,6.3,2.9,6.3,6.4c0,0,0,0,0,0c0,0,0,0,0,0c0,3.2-2.4,5.9-5.5,6.4
				l-17.9,17.9l22.8,22.8c0.8,0.8,0.8,2.2,0,3l-4.3,4.3C408.7,603.2,408.1,603.4,407.6,603.4z M382,572.7l25.6,25.6l1.3-1.3
				L386,574.2c-0.8-0.8-0.8-2.2,0-3l20-20c0.4-0.4,0.9-0.6,1.6-0.6c1.2,0,2.1-1,2.1-2.1c0,0,0,0,0-0.1c0,0,0,0,0-0.1
				c0-1.2-1-2.1-2.2-2.1c0,0,0,0-0.1,0c-1.2,0-2.1,1-2.1,2.1c0,0,0,0,0,0.1c0,0.6-0.2,1.1-0.6,1.5L382,572.7z"/>
		</g>
		<g>
			<path fill="#592403" d="M562.3,578.9C520,589,491,609.8,491,633.8c0,24,29.1,44.8,71.3,54.8V578.9z"/>
			<path fill="#592403" d="M562.3,690.8c-0.2,0-0.3,0-0.5-0.1c-45-10.7-73-32.5-73-56.9c0-24.4,28-46.2,73-56.9
				c0.6-0.2,1.3,0,1.8,0.4c0.5,0.4,0.8,1,0.8,1.7v109.7c0,0.7-0.3,1.3-0.8,1.7C563.3,690.6,562.8,690.8,562.3,690.8z M560.2,581.7
				c-40.8,10.3-67.1,30.6-67.1,52.1c0,21.5,26.2,41.8,67.1,52.1V581.7z"/>
		</g>
		<g>
			<path fill="#FFA100" d="M731.8,708.5c57.6-13.7,97.2-42,97.2-74.7c0-32.7-39.6-61-97.2-74.7V708.5z"/>
			<path fill="#592403" d="M731.8,710.6c-0.5,0-0.9-0.2-1.3-0.5c-0.5-0.4-0.8-1-0.8-1.7V559.1c0-0.7,0.3-1.3,0.8-1.7
				c0.5-0.4,1.2-0.6,1.8-0.4c61,14.5,98.8,43.9,98.8,76.8c0,32.9-37.9,62.3-98.8,76.8C732.1,710.6,731.9,710.6,731.8,710.6z
				 M733.9,561.8v144.1c56.6-14,93-42.1,93-72C826.8,603.9,790.5,575.8,733.9,561.8z"/>
		</g>
		<g>
			<path fill="#FFD05F" d="M724.2,440.8c28.3,36.4,28.9,83.4-47.7,142.8c-76.6,59.4-176.8,59.8-189.8,41.6
				C469.5,601,497.6,511,574.1,451.6S695.9,404.4,724.2,440.8z"/>
			<path fill="#592403" d="M528.3,637.9c-22,0-38.2-4.3-43.3-11.5c-19.1-26.9,13.3-118.6,87.9-176.4c35.7-27.7,67.3-41.8,93.9-41.8
				c23.1,0,43,10.6,59.1,31.4c16,20.7,21.4,42.4,15.9,64.6c-6.4,25.9-27.9,53.3-63.9,81.2C627.8,624.1,567.8,637.9,528.3,637.9z
				 M666.8,412.4c-25.6,0-56.3,13.8-91.3,40.9c-45.8,35.6-68.7,77.4-78.2,99.2c-13.6,31-17.1,59.7-8.8,71.5
				c4.2,5.9,19.8,9.7,39.9,9.7c38.8,0,97.8-13.6,146.9-51.7c35.2-27.3,56.2-53.8,62.4-78.8c5.2-21.2,0.3-41.1-15.1-61
				C707,422.1,688.8,412.4,666.8,412.4z"/>
		</g>
		<g>
			<path fill="#FFA100" d="M704.4,455.3c23.3,30,23.8,68.7-39.3,117.6c-63.1,48.9-145.7,49.3-156.4,34.3c-14.1-19.9,9-94,72-143
				C643.9,415.3,681.1,425.3,704.4,455.3z"/>
			<path fill="#592403" d="M543,618c-18.3,0-31.7-3.6-36-9.6c-15.9-22.3,10.9-98.1,72.5-145.9c29.5-22.9,55.6-34.5,77.6-34.5
				c19.1,0,35.6,8.7,49,26c13.3,17.1,17.7,35.1,13.1,53.5c-5.3,21.5-23.1,44-52.8,67.1C625.1,606.6,575.6,618,543,618z M657.1,432.3
				c-21,0-46.2,11.3-75,33.6c-62.6,48.6-84.5,121.9-71.6,140c2.6,3.6,12.6,7.8,32.6,7.8c31.9,0,80.4-11.2,120.8-42.5
				c28.9-22.4,46.2-44.2,51.3-64.7c4.3-17.3,0.2-33.6-12.4-49.9C690,440.2,675.1,432.3,657.1,432.3z"/>
		</g>
		<g>
			<path fill="#592403" d="M744.7,690.6c42.3-10,71.3-30.8,71.3-54.8c0-24-29.1-44.8-71.3-54.8V690.6z"/>
			<path fill="#592403" d="M744.7,692.7c-0.5,0-0.9-0.2-1.3-0.5c-0.5-0.4-0.8-1-0.8-1.7V580.9c0-0.7,0.3-1.3,0.8-1.7
				c0.5-0.4,1.2-0.6,1.8-0.4c45,10.7,73,32.5,73,56.9s-28,46.2-73,56.9C745,692.7,744.9,692.7,744.7,692.7z M746.8,583.6v104.3
				c40.8-10.3,67.1-30.6,67.1-52.1S787.7,593.9,746.8,583.6z"/>
		</g>
		<g>
			<path fill="#FFD05F" d="M667.8,482c14.1,18.2,14.4,41.6-23.8,71.2c-38.2,29.6-88.2,29.8-94.7,20.7c-8.6-12,5.4-56.9,43.6-86.5
				C631.2,457.8,653.7,463.9,667.8,482z"/>
		</g>
		<g>
			<path fill="#FFD05F" d="M492.3,634.7c-0.5,31.1-26.1,55.9-57.2,55.3c-31.1-0.5-55.9-26.1-55.3-57.2c0.5-31.1,26.1-55.9,57.2-55.3
				C468,578,492.8,603.6,492.3,634.7z"/>
			<path fill="#592403" d="M436.1,692.2l-1,0c-15.6-0.3-30.2-6.6-41-17.8c-10.8-11.2-16.7-26-16.4-41.6
				c0.5-31.7,26.7-57.4,58.4-57.4l1,0c32.2,0.5,58,27.2,57.4,59.4C493.9,666.4,467.7,692.2,436.1,692.2z M436,579.6
				c-29.4,0-53.6,23.9-54.1,53.3c-0.2,14.5,5.2,28.1,15.2,38.5c10.1,10.4,23.6,16.3,38,16.5l0.9,0c29.4,0,53.6-23.9,54.1-53.3
				c0.5-29.9-23.4-54.5-53.2-55L436,579.6z"/>
		</g>
		<g>
			<path fill="#592403" d="M417.7,624.7c-0.1,6.1-5.2,11-11.3,10.9c-6.1-0.1-11-5.2-10.9-11.3c0.1-6.1,5.2-11,11.3-10.9
				C412.9,613.5,417.8,618.6,417.7,624.7z"/>
			<path fill="#592403" d="M406.6,637.8c0,0-0.2,0-0.2,0c-7.3-0.1-13.1-6.2-13-13.5c0.1-7.2,6.1-13,13.2-13c0,0,0.2,0,0.2,0
				c3.5,0.1,6.8,1.5,9.3,4c2.5,2.5,3.8,5.9,3.7,9.4C419.7,631.9,413.7,637.8,406.6,637.8z M406.7,615.6c-5,0-9,4-9.1,8.8
				c-0.1,5,3.9,9.1,8.8,9.1l0.1,2.1v-2.1c4.9,0,8.9-4,9-8.8c0-2.4-0.9-4.7-2.5-6.4C411.4,616.6,409.1,615.6,406.7,615.6
				C406.7,615.6,406.7,615.6,406.7,615.6z"/>
		</g>
	</g>
</g>
</svg>
